<svg data-v-423bf9ae="" xmlns="http://www.w3.org/2000/svg" viewBox="0 0 169.5691640968639 60" class="font"><!----><!----><defs data-v-423bf9ae=""><linearGradient data-v-423bf9ae="" gradientTransform="rotate(25)" id="4622e912-d971-418a-8915-8d10764086b1" x1="0%" y1="0%" x2="100%" y2="0%"><stop data-v-423bf9ae="" offset="0%" style="stop-color: rgb(0, 21, 214); stop-opacity: 1;"></stop><stop data-v-423bf9ae="" offset="100%" style="stop-color: rgb(9, 137, 251); stop-opacity: 1;"></stop></linearGradient></defs><g data-v-423bf9ae="" id="6583648b-a33a-4bed-a2c9-2355c86df77d" fill="url(#4622e912-d971-418a-8915-8d10764086b1)" transform="matrix(4.535147549208299,0,0,4.535147549208299,-1.723359043032147,-14.331066406334479)"><path d="M6.48 5.96L9.02 5.96L9.02 12.17L9.02 12.17Q9.02 14.28 7.87 15.34L7.87 15.34L7.87 15.34Q6.72 16.39 4.56 16.39L4.56 16.39L4.56 16.39Q3.44 16.39 2.46 16.14L2.46 16.14L2.46 16.14Q1.48 15.89 0.80 15.40L0.80 15.40L1.76 13.54L1.76 13.54Q2.23 13.92 2.93 14.13L2.93 14.13L2.93 14.13Q3.64 14.35 4.33 14.35L4.33 14.35L4.33 14.35Q5.38 14.35 5.87 13.89L5.87 13.89L5.87 13.89Q6.36 13.43 6.36 12.52L6.36 12.52L6.36 12.26L6.36 12.26Q5.59 13.16 4.10 13.16L4.10 13.16L4.10 13.16Q3.09 13.16 2.24 12.71L2.24 12.71L2.24 12.71Q1.39 12.25 0.88 11.42L0.88 11.42L0.88 11.42Q0.38 10.58 0.38 9.49L0.38 9.49L0.38 9.49Q0.38 8.41 0.88 7.58L0.88 7.58L0.88 7.58Q1.39 6.75 2.24 6.29L2.24 6.29L2.24 6.29Q3.09 5.84 4.10 5.84L4.10 5.84L4.10 5.84Q5.73 5.84 6.48 6.89L6.48 6.89L6.48 5.96ZM4.73 11.05L4.73 11.05Q5.45 11.05 5.92 10.61L5.92 10.61L5.92 10.61Q6.38 10.18 6.38 9.49L6.38 9.49L6.38 9.49Q6.38 8.81 5.92 8.38L5.92 8.38L5.92 8.38Q5.46 7.95 4.73 7.95L4.73 7.95L4.73 7.95Q4.00 7.95 3.54 8.38L3.54 8.38L3.54 8.38Q3.07 8.81 3.07 9.49L3.07 9.49L3.07 9.49Q3.07 10.18 3.54 10.61L3.54 10.61L3.54 10.61Q4.02 11.05 4.73 11.05L4.73 11.05ZM14.53 13.68L14.53 13.68Q13.31 13.68 12.33 13.17L12.33 13.17L12.33 13.17Q11.35 12.67 10.80 11.77L10.80 11.77L10.80 11.77Q10.25 10.88 10.25 9.74L10.25 9.74L10.25 9.74Q10.25 8.62 10.80 7.73L10.80 7.73L10.80 7.73Q11.35 6.83 12.33 6.33L12.33 6.33L12.33 6.33Q13.30 5.84 14.53 5.84L14.53 5.84L14.53 5.84Q15.76 5.84 16.74 6.33L16.74 6.33L16.74 6.33Q17.72 6.83 18.27 7.72L18.27 7.72L18.27 7.72Q18.82 8.61 18.82 9.74L18.82 9.74L18.82 9.74Q18.82 10.88 18.27 11.77L18.27 11.77L18.27 11.77Q17.72 12.67 16.74 13.17L16.74 13.17L16.74 13.17Q15.76 13.68 14.53 13.68L14.53 13.68ZM14.53 11.56L14.53 11.56Q15.23 11.56 15.68 11.08L15.68 11.08L15.68 11.08Q16.13 10.60 16.13 9.74L16.13 9.74L16.13 9.74Q16.13 8.90 15.68 8.43L15.68 8.43L15.68 8.43Q15.23 7.95 14.53 7.95L14.53 7.95L14.53 7.95Q13.83 7.95 13.38 8.43L13.38 8.43L13.38 8.43Q12.94 8.90 12.94 9.74L12.94 9.74L12.94 9.74Q12.94 10.60 13.38 11.08L13.38 11.08L13.38 11.08Q13.83 11.56 14.53 11.56L14.53 11.56ZM24.82 5.84L24.82 5.84Q25.86 5.84 26.71 6.31L26.71 6.31L26.71 6.31Q27.55 6.79 28.05 7.68L28.05 7.68L28.05 7.68Q28.55 8.57 28.55 9.74L28.55 9.74L28.55 9.74Q28.55 10.92 28.05 11.82L28.05 11.82L28.05 11.82Q27.55 12.71 26.71 13.20L26.71 13.20L26.71 13.20Q25.86 13.68 24.82 13.68L24.82 13.68L24.82 13.68Q23.32 13.68 22.58 12.80L22.58 12.80L22.58 13.55L20.05 13.55L20.05 3.16L22.71 3.16L22.71 6.62L22.71 6.62Q23.48 5.84 24.82 5.84L24.82 5.84ZM24.26 11.56L24.26 11.56Q24.96 11.56 25.41 11.08L25.41 11.08L25.41 11.08Q25.86 10.60 25.86 9.74L25.86 9.74L25.86 9.74Q25.86 8.90 25.41 8.43L25.41 8.43L25.41 8.43Q24.96 7.95 24.26 7.95L24.26 7.95L24.26 7.95Q23.56 7.95 23.11 8.43L23.11 8.43L23.11 8.43Q22.67 8.90 22.67 9.74L22.67 9.74L22.67 9.74Q22.67 10.60 23.11 11.08L23.11 11.08L23.11 11.08Q23.56 11.56 24.26 11.56L24.26 11.56ZM35.24 5.96L37.77 5.96L34.50 13.86L34.50 13.86Q33.92 15.26 33.10 15.83L33.10 15.83L33.10 15.83Q32.27 16.39 31.08 16.39L31.08 16.39L31.08 16.39Q30.48 16.39 29.87 16.20L29.87 16.20L29.87 16.20Q29.26 16.02 28.88 15.71L28.88 15.71L29.81 13.85L29.81 13.85Q30.03 14.06 30.35 14.17L30.35 14.17L30.35 14.17Q30.66 14.29 30.98 14.29L30.98 14.29L30.98 14.29Q31.36 14.29 31.61 14.14L31.61 14.14L31.61 14.14Q31.85 13.99 32.02 13.65L32.02 13.65L28.77 5.96L31.50 5.96L33.36 10.60L35.24 5.96Z"></path></g><!----><!----></svg>